<?xml version="1.0" encoding="UTF-8"?>
<!DOCTYPE svg PUBLIC "-//W3C//DTD SVG 1.1//EN" "http://www.w3.org/Graphics/SVG/1.1/DTD/svg11.dtd">
<!-- Creator: CorelDRAW 2019 (64 Bit Versão de avaliação) -->
<svg xmlns="http://www.w3.org/2000/svg" xml:space="preserve" width="140px" height="90px" version="1.1" style="shape-rendering:geometricPrecision; text-rendering:geometricPrecision; image-rendering:optimizeQuality; fill-rule:evenodd; clip-rule:evenodd"
viewBox="0 0 304.41 195.87"
 xmlns:xlink="http://www.w3.org/1999/xlink">
 <defs>
  <style type="text/css">
   <![CDATA[
    .fil1 {fill:#4A555C;fill-rule:nonzero}
    .fil0 {fill:#B20000;fill-rule:nonzero}
   ]]>
  </style>
 </defs>
 <g id="Camada_x0020_1">
  <metadata id="CorelCorpID_0Corel-Layer"/>
  <path class="fil0" d="M104.33 143.26c0,3.84 -0.88,6.78 -2.61,8.8 -1.75,2.02 -4.19,3.03 -7.31,3.03 -1.34,0 -2.62,-0.24 -3.83,-0.71l0 -5.37c1.02,0.75 2.2,1.14 3.53,1.14 3.04,0 4.55,-2.37 4.55,-7.09l0 -17.87 5.67 0 0 18.07z"/>
  <path id="1" class="fil0" d="M109.2 144.21c0,-3.42 1.01,-6.14 3.04,-8.13 2.01,-1.98 4.76,-2.98 8.22,-2.98 3.34,0 5.97,0.97 7.91,2.92 1.93,1.95 2.9,4.56 2.9,7.84 0,3.4 -0.99,6.13 -3,8.17 -2,2.04 -4.71,3.06 -8.13,3.06 -3.35,0 -6.02,-0.98 -7.99,-2.94 -1.96,-1.96 -2.95,-4.61 -2.95,-7.94zm5.62 -0.07c0,4.4 1.84,6.6 5.5,6.6 3.52,0 5.28,-2.26 5.28,-6.77 0,-4.36 -1.76,-6.54 -5.3,-6.54 -1.74,0 -3.08,0.6 -4.04,1.79 -0.95,1.18 -1.44,2.83 -1.44,4.92z"/>
  <path id="2" class="fil0" d="M136.3 134.93c0.95,-0.54 2.17,-0.98 3.68,-1.32 1.5,-0.34 2.85,-0.51 4.05,-0.51 5.67,0 8.5,2.88 8.5,8.62l0 12.85 -5.31 0 0 -3.09 -0.1 0c-1.41,2.41 -3.51,3.61 -6.29,3.61 -2.02,0 -3.62,-0.56 -4.81,-1.7 -1.18,-1.14 -1.77,-2.66 -1.77,-4.59 0,-4 2.38,-6.32 7.14,-6.96l5.85 -0.8c0,-2.67 -1.3,-4.01 -3.91,-4.01 -2.49,0 -4.83,0.78 -7.03,2.34l0 -4.44zm6.77 10.07c-2.39,0.3 -3.59,1.37 -3.59,3.2 0,0.84 0.29,1.5 0.86,2.02 0.57,0.52 1.34,0.78 2.31,0.78 1.33,0 2.43,-0.47 3.29,-1.41 0.87,-0.94 1.3,-2.11 1.3,-3.54l0 -1.59 -4.17 0.54zm7.82 -20.86c0,1.77 -0.37,3.16 -1.1,4.17 -0.73,1.01 -1.72,1.51 -2.97,1.51 -1.11,0 -2.25,-0.31 -3.42,-0.94 -1.11,-0.62 -1.95,-0.93 -2.49,-0.93 -1.12,0 -1.68,0.74 -1.68,2.23l-2.61 0c0,-1.78 0.36,-3.16 1.07,-4.16 0.73,-0.98 1.74,-1.48 3.06,-1.48 1.05,0 2.16,0.34 3.33,1.01 1.07,0.6 1.9,0.9 2.5,0.9 1.09,0 1.63,-0.77 1.63,-2.31l2.68 0z"/>
  <path id="3" class="fil0" d="M156.72 144.21c0,-3.42 1.02,-6.14 3.04,-8.13 2.02,-1.98 4.76,-2.98 8.22,-2.98 3.34,0 5.98,0.97 7.91,2.92 1.94,1.95 2.9,4.56 2.9,7.84 0,3.4 -0.99,6.13 -2.99,8.17 -2.01,2.04 -4.72,3.06 -8.14,3.06 -3.35,0 -6.01,-0.98 -7.98,-2.94 -1.97,-1.96 -2.96,-4.61 -2.96,-7.94zm5.63 -0.07c0,4.4 1.83,6.6 5.49,6.6 3.53,0 5.29,-2.26 5.29,-6.77 0,-4.36 -1.77,-6.54 -5.31,-6.54 -1.73,0 -3.07,0.6 -4.03,1.79 -0.96,1.18 -1.44,2.83 -1.44,4.92z"/>
  <path id="4" class="fil0" d="M225.08 154.57l0 -18.2c0,-1.33 0.08,-3.36 0.24,-6.1l-0.12 0c-0.33,1.67 -0.64,2.87 -0.92,3.59l-7.78 20.71 -4.33 0 -7.88 -20.54c-0.21,-0.53 -0.52,-1.78 -0.92,-3.76l-0.15 0c0.15,2.16 0.23,4.52 0.23,7.06l0 17.24 -5.17 0 0 -29.38 8.18 0 6.87 18.31c0.57,1.52 0.94,2.86 1.13,4.03l0.14 0c0.29,-1.16 0.71,-2.51 1.24,-4.07l6.92 -18.27 7.94 0 0 29.38 -5.62 0z"/>
  <path id="5" class="fil0" d="M237.61 134.93c0.95,-0.54 2.17,-0.98 3.67,-1.32 1.51,-0.34 2.86,-0.51 4.06,-0.51 5.67,0 8.5,2.88 8.5,8.62l0 12.85 -5.31 0 0 -3.09 -0.1 0c-1.41,2.41 -3.51,3.61 -6.29,3.61 -2.02,0 -3.62,-0.56 -4.81,-1.7 -1.18,-1.14 -1.77,-2.66 -1.77,-4.59 0,-4 2.38,-6.32 7.14,-6.96l5.85 -0.8c0,-2.67 -1.3,-4.01 -3.91,-4.01 -2.49,0 -4.83,0.78 -7.03,2.34l0 -4.44zm6.77 10.07c-2.39,0.3 -3.59,1.37 -3.59,3.2 0,0.84 0.28,1.5 0.86,2.02 0.57,0.52 1.34,0.78 2.31,0.78 1.33,0 2.43,-0.47 3.29,-1.41 0.87,-0.94 1.3,-2.11 1.3,-3.54l0 -1.59 -4.17 0.54z"/>
  <path id="6" class="fil0" d="M272.18 138.73c-0.73,-0.44 -1.63,-0.66 -2.69,-0.66 -1.4,0 -2.52,0.57 -3.35,1.71 -0.84,1.14 -1.26,2.66 -1.26,4.58l0 10.21 -5.57 0 0 -20.97 5.57 0 0 4.03 0.06 0c1.02,-2.93 2.87,-4.39 5.52,-4.39 0.77,0 1.34,0.09 1.72,0.28l0 5.21z"/>
  <path id="7" class="fil0" d="M275.02 126.69c0,-0.85 0.3,-1.56 0.91,-2.13 0.6,-0.57 1.39,-0.86 2.34,-0.86 0.93,0 1.71,0.28 2.34,0.84 0.62,0.57 0.94,1.29 0.94,2.15 0,0.87 -0.32,1.59 -0.94,2.16 -0.61,0.57 -1.39,0.86 -2.34,0.86 -0.95,0 -1.72,-0.29 -2.34,-0.88 -0.61,-0.59 -0.91,-1.3 -0.91,-2.14zm0.44 27.88l0 -20.97 5.54 0 0 20.97 -5.54 0z"/>
  <path id="8" class="fil0" d="M287.25 134.93c0.95,-0.54 2.17,-0.98 3.67,-1.32 1.51,-0.34 2.86,-0.51 4.05,-0.51 5.67,0 8.51,2.88 8.51,8.62l0 12.85 -5.31 0 0 -3.09 -0.1 0c-1.41,2.41 -3.51,3.61 -6.29,3.61 -2.02,0 -3.63,-0.56 -4.81,-1.7 -1.19,-1.14 -1.78,-2.66 -1.78,-4.59 0,-4 2.39,-6.32 7.15,-6.96l5.84 -0.8c0,-2.67 -1.3,-4.01 -3.91,-4.01 -2.48,0 -4.83,0.78 -7.02,2.34l0 -4.44zm6.76 10.07c-2.39,0.3 -3.59,1.37 -3.59,3.2 0,0.84 0.29,1.5 0.86,2.02 0.57,0.52 1.34,0.78 2.32,0.78 1.33,0 2.42,-0.47 3.29,-1.41 0.86,-0.94 1.29,-2.11 1.29,-3.54l0 -1.59 -4.17 0.54z"/>
  <path id="9" class="fil0" d="M101.09 188.38c2.32,1.93 4.99,2.89 7.99,2.89 1.82,0 3.16,-0.31 4.06,-0.94 0.89,-0.64 1.33,-1.46 1.33,-2.49 0,-0.89 -0.37,-1.71 -1.12,-2.45 -0.74,-0.75 -2.54,-1.73 -5.4,-2.96 -2.44,-1.09 -4.2,-2.32 -5.3,-3.68 -1.1,-1.36 -1.65,-2.96 -1.65,-4.8 0,-2.64 1.02,-4.72 3.08,-6.21 2.05,-1.5 4.73,-2.25 8.06,-2.25 2.98,0 5.33,0.37 7.05,1.12l0 5.45c-1.91,-1.31 -4.2,-1.96 -6.89,-1.96 -1.58,0 -2.86,0.3 -3.84,0.9 -0.99,0.6 -1.47,1.42 -1.47,2.47 0,0.84 0.34,1.6 1.02,2.3 0.68,0.69 2.26,1.58 4.77,2.69 2.87,1.25 4.87,2.57 5.98,3.94 1.12,1.38 1.68,3.03 1.68,4.94 0,2.77 -0.99,4.89 -2.96,6.34 -1.98,1.46 -4.75,2.19 -8.32,2.19 -3.31,0 -6,-0.56 -8.07,-1.66l0 -5.83z"/>
  <path id="10" class="fil0" d="M135.65 195.13c-0.94,0.48 -2.26,0.71 -3.95,0.71 -4.3,0 -6.44,-2.27 -6.44,-6.82l0 -10.42 -3.48 0 0 -4.23 3.48 0 0 -4.69 5.54 -1.62 0 6.31 4.85 0 0 4.23 -4.85 0 0 9.44c0,2.32 0.91,3.47 2.74,3.47 0.76,0 1.46,-0.21 2.11,-0.63l0 4.25z"/>
  <path id="11" class="fil0" d="M157.65 186.42l-14.01 0c0.23,3.57 2.25,5.36 6.07,5.36 2.33,0 4.4,-0.62 6.22,-1.84l0 4.23c-1.94,1.13 -4.43,1.7 -7.48,1.7 -3.26,0 -5.79,-0.95 -7.61,-2.84 -1.82,-1.89 -2.73,-4.53 -2.73,-7.92 0,-3.33 0.98,-6.03 2.92,-8.12 1.96,-2.08 4.4,-3.12 7.32,-3.12 2.93,0 5.21,0.9 6.85,2.69 1.63,1.8 2.45,4.27 2.45,7.41l0 2.45zm-5.25 -3.65c0,-3.32 -1.37,-4.99 -4.11,-4.99 -1.15,0 -2.15,0.45 -3.02,1.36 -0.87,0.91 -1.42,2.12 -1.63,3.63l8.76 0z"/>
  <path id="12" class="fil0" d="M180.83 174.37l-7.99 20.98 -6.16 0 -7.59 -20.98 5.98 0 4.14 13.61c0.39,1.29 0.63,2.45 0.72,3.48l0.1 0c0.11,-1 0.35,-2.13 0.71,-3.37l4.25 -13.72 5.84 0z"/>
  <path id="13" class="fil0" d="M183.62 175.71c0.94,-0.55 2.16,-0.99 3.67,-1.33 1.51,-0.34 2.85,-0.51 4.05,-0.51 5.67,0 8.51,2.88 8.51,8.62l0 12.86 -5.31 0 0 -3.1 -0.1 0c-1.41,2.41 -3.51,3.62 -6.29,3.62 -2.03,0 -3.63,-0.57 -4.81,-1.71 -1.19,-1.14 -1.78,-2.66 -1.78,-4.58 0,-4.01 2.39,-6.33 7.15,-6.97l5.84 -0.79c0,-2.68 -1.3,-4.02 -3.91,-4.02 -2.48,0 -4.83,0.78 -7.02,2.34l0 -4.43zm6.76 10.06c-2.39,0.31 -3.59,1.37 -3.59,3.21 0,0.83 0.29,1.5 0.86,2.01 0.57,0.52 1.34,0.79 2.32,0.79 1.33,0 2.42,-0.47 3.29,-1.41 0.86,-0.94 1.29,-2.12 1.29,-3.55l0 -1.59 -4.17 0.54z"/>
  <path id="14" class="fil0" d="M224.73 195.35l-5.54 0 0 -11.76c0,-3.59 -1.3,-5.39 -3.89,-5.39 -1.31,0 -2.37,0.49 -3.19,1.47 -0.82,0.98 -1.23,2.22 -1.23,3.72l0 11.96 -5.56 0 0 -20.98 5.56 0 0 3.37 0.06 0c1.54,-2.58 3.81,-3.87 6.81,-3.87 4.66,0 6.98,2.88 6.98,8.64l0 12.84z"/>
  <path id="15" class="fil0" d="M230.68 175.71c0.95,-0.55 2.16,-0.99 3.67,-1.33 1.51,-0.34 2.85,-0.51 4.05,-0.51 5.67,0 8.51,2.88 8.51,8.62l0 12.86 -5.31 0 0 -3.1 -0.1 0c-1.41,2.41 -3.51,3.62 -6.29,3.62 -2.02,0 -3.63,-0.57 -4.81,-1.71 -1.19,-1.14 -1.78,-2.66 -1.78,-4.58 0,-4.01 2.39,-6.33 7.15,-6.97l5.84 -0.79c0,-2.68 -1.3,-4.02 -3.91,-4.02 -2.48,0 -4.83,0.78 -7.02,2.34l0 -4.43zm6.76 10.06c-2.39,0.31 -3.59,1.37 -3.59,3.21 0,0.83 0.29,1.5 0.86,2.01 0.57,0.52 1.34,0.79 2.32,0.79 1.33,0 2.42,-0.47 3.29,-1.41 0.86,-0.94 1.29,-2.12 1.29,-3.55l0 -1.59 -4.17 0.54z"/>
  <path id="16" class="fil0" d="M264.17 195.13c-0.94,0.48 -2.26,0.71 -3.95,0.71 -4.3,0 -6.45,-2.27 -6.45,-6.82l0 -10.42 -3.47 0 0 -4.23 3.47 0 0 -4.69 5.55 -1.62 0 6.31 4.85 0 0 4.23 -4.85 0 0 9.44c0,2.32 0.91,3.47 2.74,3.47 0.75,0 1.45,-0.21 2.11,-0.63l0 4.25z"/>
  <path id="17" class="fil0" d="M279.88 195.13c-0.94,0.48 -2.26,0.71 -3.95,0.71 -4.3,0 -6.45,-2.27 -6.45,-6.82l0 -10.42 -3.47 0 0 -4.23 3.47 0 0 -4.69 5.55 -1.62 0 6.31 4.85 0 0 4.23 -4.85 0 0 9.44c0,2.32 0.91,3.47 2.74,3.47 0.75,0 1.45,-0.21 2.11,-0.63l0 4.25z"/>
  <path id="18" class="fil0" d="M282.34 184.99c0,-3.43 1.01,-6.14 3.04,-8.13 2.01,-1.99 4.76,-2.99 8.22,-2.99 3.34,0 5.97,0.98 7.91,2.93 1.93,1.95 2.9,4.55 2.9,7.83 0,3.41 -0.99,6.13 -3,8.17 -2,2.04 -4.71,3.07 -8.13,3.07 -3.35,0 -6.02,-0.99 -7.99,-2.95 -1.96,-1.96 -2.95,-4.6 -2.95,-7.93zm5.62 -0.08c0,4.4 1.84,6.6 5.5,6.6 3.52,0 5.28,-2.25 5.28,-6.76 0,-4.36 -1.76,-6.55 -5.3,-6.55 -1.74,0 -3.08,0.6 -4.04,1.79 -0.95,1.19 -1.44,2.83 -1.44,4.92z"/>
  <polygon class="fil1" points="75.66,110.59 75.66,89.78 23.48,89.78 23.48,64.96 69.86,64.96 69.86,44.44 23.48,44.44 23.48,20.66 75.36,20.66 75.36,0 0,0 0,110.59 "/>
  <path id="1" class="fil1" d="M139.42 110.59l0 -17.84 -9.81 0c-3.86,0 -6.71,-0.82 -8.54,-2.45 -1.84,-1.64 -2.75,-4.34 -2.75,-8.1l0 -32.55 20.81 0 0 -17.69 -20.81 0 0 -21.11 -21.71 0 0 21.11 -11.29 0 0 17.69 11.29 0 0 33.74c0,8.91 2.76,15.68 8.25,20.29 5.5,4.6 13.06,6.91 22.67,6.91l11.89 0z"/>
  <path id="2" class="fil1" d="M221.17 84.58l-20.21 0c0,7.13 -4.95,10.7 -14.86,10.7 -4.76,0 -8.55,-1.19 -11.37,-3.57 -2.83,-2.38 -4.24,-5.95 -4.24,-10.7l0 -3.42 50.83 0 0 -14.12c0,-10.41 -3.22,-18.43 -9.66,-24.08 -6.44,-5.65 -15.01,-8.47 -25.71,-8.47 -10.61,0 -19.15,2.87 -25.64,8.62 -6.49,5.75 -9.74,13.57 -9.74,23.48l0 18.43c0,9.62 3.25,17.12 9.74,22.52 6.49,5.4 15.03,8.1 25.64,8.1 10.7,0 19.25,-2.37 25.64,-7.13 6.39,-4.76 9.58,-11.25 9.58,-19.47l0 -0.89zm-19.76 -19.77l-30.92 0 0 -1.79c0,-4.95 1.36,-8.74 4.09,-11.37 2.72,-2.62 6.56,-3.94 11.52,-3.94 4.85,0 8.62,1.29 11.29,3.87 2.68,2.57 4.02,6.34 4.02,11.29l0 1.94z"/>
  <path id="3" class="fil1" d="M303.97 79.82l-20.22 0c0,9.51 -4.8,14.27 -14.42,14.27 -9.51,0 -14.27,-5.01 -14.27,-15.01l0 -15.31c0,-10.01 4.76,-15.02 14.27,-15.02 9.62,0 14.42,4.81 14.42,14.42l20.22 0 0 -1.34c0,-10 -3.1,-17.66 -9.29,-22.96 -6.2,-5.3 -14.64,-7.95 -25.35,-7.95 -10.6,0 -19.02,2.75 -25.26,8.25 -6.25,5.5 -9.37,13.1 -9.37,22.81l0 19.03c0,9.71 3.12,17.31 9.37,22.81 6.24,5.5 14.66,8.25 25.26,8.25 10.71,0 19.15,-2.65 25.35,-7.95 6.19,-5.3 9.29,-12.96 9.29,-22.96l0 -1.34z"/>
 </g>
</svg>
